<mxfile host="app.diagrams.net" modified="2022-11-10T00:35:45.394Z" agent="5.0 (Windows NT 10.0; Win64; x64) AppleWebKit/537.36 (KHTML, like Gecko) Chrome/107.0.0.0 Safari/537.36" etag="3JZlX6AajRuD5FwSWtIw" version="20.1.1" type="github" pages="3">
  <diagram id="C1S7lXm1vycLu2fcg__U" name="Page-1">
    <mxGraphModel dx="1609" dy="649" grid="1" gridSize="10" guides="1" tooltips="1" connect="1" arrows="1" fold="1" page="1" pageScale="1" pageWidth="827" pageHeight="1169" math="0" shadow="0">
      <root>
        <mxCell id="0" />
        <mxCell id="1" parent="0" />
        <mxCell id="EpPyLKI_BGSp-W5NQvNy-1" value="&lt;font style=&quot;font-size: 15px;&quot;&gt;A0&lt;/font&gt;" style="shape=umlFrame;whiteSpace=wrap;html=1;direction=west;width=60;height=30;" vertex="1" parent="1">
          <mxGeometry x="210" y="160" width="590" height="550" as="geometry" />
        </mxCell>
        <mxCell id="EpPyLKI_BGSp-W5NQvNy-2" value="&lt;span style=&quot;font-family: -apple-system, BlinkMacSystemFont, Roboto, &amp;quot;Open Sans&amp;quot;, &amp;quot;Helvetica Neue&amp;quot;, &amp;quot;Noto Sans Armenian&amp;quot;, &amp;quot;Noto Sans Bengali&amp;quot;, &amp;quot;Noto Sans Cherokee&amp;quot;, &amp;quot;Noto Sans Devanagari&amp;quot;, &amp;quot;Noto Sans Ethiopic&amp;quot;, &amp;quot;Noto Sans Georgian&amp;quot;, &amp;quot;Noto Sans Hebrew&amp;quot;, &amp;quot;Noto Sans Kannada&amp;quot;, &amp;quot;Noto Sans Khmer&amp;quot;, &amp;quot;Noto Sans Lao&amp;quot;, &amp;quot;Noto Sans Osmanya&amp;quot;, &amp;quot;Noto Sans Tamil&amp;quot;, &amp;quot;Noto Sans Telugu&amp;quot;, &amp;quot;Noto Sans Thai&amp;quot;, sans-serif; font-style: normal; font-variant-ligatures: normal; font-variant-caps: normal; font-weight: 400; letter-spacing: normal; orphans: 2; text-indent: 0px; text-transform: none; widows: 2; word-spacing: 0px; -webkit-text-stroke-width: 0px; text-decoration-thickness: initial; text-decoration-style: initial; text-decoration-color: initial; float: none; background-color: rgb(255, 255, 255); display: inline !important;&quot;&gt;&lt;font style=&quot;font-size: 20px;&quot;&gt;Создать сайт для выбора аниме «Uranime»&lt;/font&gt;&lt;/span&gt;" style="text;whiteSpace=wrap;html=1;align=center;verticalAlign=middle;" vertex="1" parent="1">
          <mxGeometry x="210" y="160" width="590" height="550" as="geometry" />
        </mxCell>
        <mxCell id="EpPyLKI_BGSp-W5NQvNy-3" value="" style="endArrow=classic;html=1;rounded=0;fontSize=20;fontColor=#000000;" edge="1" parent="1">
          <mxGeometry width="50" height="50" relative="1" as="geometry">
            <mxPoint x="-120" y="180" as="sourcePoint" />
            <mxPoint x="210" y="180" as="targetPoint" />
          </mxGeometry>
        </mxCell>
        <mxCell id="EpPyLKI_BGSp-W5NQvNy-4" value="&lt;font style=&quot;font-size: 18px;&quot;&gt;данные об аниме&lt;/font&gt;" style="edgeLabel;html=1;align=center;verticalAlign=middle;resizable=0;points=[];fontSize=20;fontColor=#000000;" vertex="1" connectable="0" parent="EpPyLKI_BGSp-W5NQvNy-3">
          <mxGeometry x="-0.1217" y="1" relative="1" as="geometry">
            <mxPoint x="8" y="-19" as="offset" />
          </mxGeometry>
        </mxCell>
        <mxCell id="EpPyLKI_BGSp-W5NQvNy-5" value="" style="endArrow=classic;html=1;rounded=0;fontSize=18;fontColor=#000000;entryX=0.006;entryY=0.28;entryDx=0;entryDy=0;entryPerimeter=0;" edge="1" parent="1">
          <mxGeometry width="50" height="50" relative="1" as="geometry">
            <mxPoint x="-120" y="270" as="sourcePoint" />
            <mxPoint x="210.00000000000009" y="270" as="targetPoint" />
          </mxGeometry>
        </mxCell>
        <mxCell id="EpPyLKI_BGSp-W5NQvNy-6" value="данные о жанрах" style="edgeLabel;html=1;align=center;verticalAlign=middle;resizable=0;points=[];fontSize=18;fontColor=#000000;" vertex="1" connectable="0" parent="EpPyLKI_BGSp-W5NQvNy-5">
          <mxGeometry x="0.1933" y="1" relative="1" as="geometry">
            <mxPoint x="-39" y="-19" as="offset" />
          </mxGeometry>
        </mxCell>
        <mxCell id="EpPyLKI_BGSp-W5NQvNy-7" value="" style="endArrow=classic;html=1;rounded=0;fontSize=18;fontColor=#000000;entryX=0.006;entryY=0.28;entryDx=0;entryDy=0;entryPerimeter=0;" edge="1" parent="1">
          <mxGeometry width="50" height="50" relative="1" as="geometry">
            <mxPoint x="-120" y="350" as="sourcePoint" />
            <mxPoint x="210" y="350" as="targetPoint" />
          </mxGeometry>
        </mxCell>
        <mxCell id="EpPyLKI_BGSp-W5NQvNy-8" value="данные о студиях" style="edgeLabel;html=1;align=center;verticalAlign=middle;resizable=0;points=[];fontSize=18;fontColor=#000000;" vertex="1" connectable="0" parent="EpPyLKI_BGSp-W5NQvNy-7">
          <mxGeometry x="0.1933" y="1" relative="1" as="geometry">
            <mxPoint x="-39" y="-19" as="offset" />
          </mxGeometry>
        </mxCell>
        <mxCell id="EpPyLKI_BGSp-W5NQvNy-9" value="" style="endArrow=classic;html=1;rounded=0;fontSize=18;fontColor=#000000;entryX=0.006;entryY=0.28;entryDx=0;entryDy=0;entryPerimeter=0;" edge="1" parent="1">
          <mxGeometry width="50" height="50" relative="1" as="geometry">
            <mxPoint x="-120" y="440" as="sourcePoint" />
            <mxPoint x="210" y="440" as="targetPoint" />
          </mxGeometry>
        </mxCell>
        <mxCell id="EpPyLKI_BGSp-W5NQvNy-10" value="данные о героях аниме" style="edgeLabel;html=1;align=center;verticalAlign=middle;resizable=0;points=[];fontSize=18;fontColor=#000000;" vertex="1" connectable="0" parent="EpPyLKI_BGSp-W5NQvNy-9">
          <mxGeometry x="0.1933" y="1" relative="1" as="geometry">
            <mxPoint x="-39" y="-19" as="offset" />
          </mxGeometry>
        </mxCell>
        <mxCell id="EpPyLKI_BGSp-W5NQvNy-11" value="данные о возрастных ограничениях" style="endArrow=classic;html=1;rounded=0;fontSize=18;fontColor=#000000;entryX=0.006;entryY=0.28;entryDx=0;entryDy=0;entryPerimeter=0;" edge="1" parent="1">
          <mxGeometry x="-0.059" y="20" width="50" height="50" relative="1" as="geometry">
            <mxPoint x="-120" y="570" as="sourcePoint" />
            <mxPoint x="210" y="570" as="targetPoint" />
            <mxPoint as="offset" />
          </mxGeometry>
        </mxCell>
        <mxCell id="EpPyLKI_BGSp-W5NQvNy-15" value="" style="endArrow=classic;html=1;rounded=0;fontSize=18;fontColor=#000000;entryX=0.006;entryY=0.28;entryDx=0;entryDy=0;entryPerimeter=0;" edge="1" parent="1">
          <mxGeometry width="50" height="50" relative="1" as="geometry">
            <mxPoint x="-120" y="670" as="sourcePoint" />
            <mxPoint x="210" y="670" as="targetPoint" />
          </mxGeometry>
        </mxCell>
        <mxCell id="EpPyLKI_BGSp-W5NQvNy-16" value="данные об актерах озвучки" style="edgeLabel;html=1;align=center;verticalAlign=middle;resizable=0;points=[];fontSize=18;fontColor=#000000;" vertex="1" connectable="0" parent="EpPyLKI_BGSp-W5NQvNy-15">
          <mxGeometry x="0.1933" y="1" relative="1" as="geometry">
            <mxPoint x="-39" y="-19" as="offset" />
          </mxGeometry>
        </mxCell>
        <mxCell id="EpPyLKI_BGSp-W5NQvNy-17" value="" style="endArrow=classic;html=1;rounded=0;fontSize=15;fontColor=#000000;" edge="1" parent="1">
          <mxGeometry width="50" height="50" relative="1" as="geometry">
            <mxPoint x="600" y="30" as="sourcePoint" />
            <mxPoint x="600" y="160" as="targetPoint" />
          </mxGeometry>
        </mxCell>
        <mxCell id="EpPyLKI_BGSp-W5NQvNy-18" value="&lt;font style=&quot;font-size: 18px;&quot;&gt;База данных anidb&lt;/font&gt;" style="edgeLabel;html=1;align=center;verticalAlign=middle;resizable=0;points=[];fontSize=18;fontColor=#000000;" vertex="1" connectable="0" parent="EpPyLKI_BGSp-W5NQvNy-17">
          <mxGeometry x="-0.1538" y="2" relative="1" as="geometry">
            <mxPoint x="88" as="offset" />
          </mxGeometry>
        </mxCell>
        <mxCell id="EpPyLKI_BGSp-W5NQvNy-19" value="" style="endArrow=classic;html=1;rounded=0;fontSize=15;fontColor=#000000;" edge="1" parent="1">
          <mxGeometry width="50" height="50" relative="1" as="geometry">
            <mxPoint x="330" y="30" as="sourcePoint" />
            <mxPoint x="330" y="160" as="targetPoint" />
          </mxGeometry>
        </mxCell>
        <mxCell id="EpPyLKI_BGSp-W5NQvNy-20" value="интернет" style="edgeLabel;html=1;align=center;verticalAlign=middle;resizable=0;points=[];fontSize=18;fontColor=#000000;" vertex="1" connectable="0" parent="EpPyLKI_BGSp-W5NQvNy-19">
          <mxGeometry x="-0.1538" y="2" relative="1" as="geometry">
            <mxPoint x="38" as="offset" />
          </mxGeometry>
        </mxCell>
        <mxCell id="EpPyLKI_BGSp-W5NQvNy-23" value="" style="endArrow=classic;html=1;rounded=0;fontSize=18;fontColor=#000000;exitX=0.998;exitY=0.184;exitDx=0;exitDy=0;exitPerimeter=0;" edge="1" parent="1" source="EpPyLKI_BGSp-W5NQvNy-2">
          <mxGeometry width="50" height="50" relative="1" as="geometry">
            <mxPoint x="839" y="256.25" as="sourcePoint" />
            <mxPoint x="1240" y="260" as="targetPoint" />
          </mxGeometry>
        </mxCell>
        <mxCell id="EpPyLKI_BGSp-W5NQvNy-24" value="подробные сгруппированные данные о каждом аниме" style="edgeLabel;html=1;align=center;verticalAlign=middle;resizable=0;points=[];fontSize=18;fontColor=#000000;" vertex="1" connectable="0" parent="EpPyLKI_BGSp-W5NQvNy-23">
          <mxGeometry x="-0.1802" y="-5" relative="1" as="geometry">
            <mxPoint x="57" y="-31" as="offset" />
          </mxGeometry>
        </mxCell>
        <mxCell id="EpPyLKI_BGSp-W5NQvNy-25" value="" style="endArrow=classic;html=1;rounded=0;fontSize=18;fontColor=#000000;exitX=1;exitY=0.175;exitDx=0;exitDy=0;exitPerimeter=0;" edge="1" parent="1">
          <mxGeometry width="50" height="50" relative="1" as="geometry">
            <mxPoint x="800" y="440.25" as="sourcePoint" />
            <mxPoint x="1240" y="440" as="targetPoint" />
          </mxGeometry>
        </mxCell>
        <mxCell id="EpPyLKI_BGSp-W5NQvNy-26" value="отзывы пользователей" style="edgeLabel;html=1;align=center;verticalAlign=middle;resizable=0;points=[];fontSize=18;fontColor=#000000;" vertex="1" connectable="0" parent="EpPyLKI_BGSp-W5NQvNy-25">
          <mxGeometry x="-0.1802" y="-5" relative="1" as="geometry">
            <mxPoint x="35" y="-31" as="offset" />
          </mxGeometry>
        </mxCell>
        <mxCell id="EpPyLKI_BGSp-W5NQvNy-27" value="" style="endArrow=classic;html=1;rounded=0;fontSize=18;fontColor=#000000;exitX=1;exitY=0.175;exitDx=0;exitDy=0;exitPerimeter=0;" edge="1" parent="1">
          <mxGeometry width="50" height="50" relative="1" as="geometry">
            <mxPoint x="800" y="600.25" as="sourcePoint" />
            <mxPoint x="1240" y="600" as="targetPoint" />
          </mxGeometry>
        </mxCell>
        <mxCell id="EpPyLKI_BGSp-W5NQvNy-28" value="отсортированное аниме" style="edgeLabel;html=1;align=center;verticalAlign=middle;resizable=0;points=[];fontSize=18;fontColor=#000000;" vertex="1" connectable="0" parent="EpPyLKI_BGSp-W5NQvNy-27">
          <mxGeometry x="-0.1802" y="-5" relative="1" as="geometry">
            <mxPoint x="35" y="-31" as="offset" />
          </mxGeometry>
        </mxCell>
        <mxCell id="EpPyLKI_BGSp-W5NQvNy-33" value="Пользоваетль" style="endArrow=classic;html=1;rounded=0;fontSize=18;fontColor=#000000;entryX=0.459;entryY=1.002;entryDx=0;entryDy=0;entryPerimeter=0;" edge="1" parent="1" target="EpPyLKI_BGSp-W5NQvNy-2">
          <mxGeometry x="-0.0487" y="-70" width="50" height="50" relative="1" as="geometry">
            <mxPoint x="480" y="880" as="sourcePoint" />
            <mxPoint x="480" y="820" as="targetPoint" />
            <mxPoint as="offset" />
          </mxGeometry>
        </mxCell>
      </root>
    </mxGraphModel>
  </diagram>
  <diagram id="Or-lZ70Ezy1ZNHymoeio" name="Page-2">
    <mxGraphModel dx="1609" dy="1818" grid="1" gridSize="10" guides="1" tooltips="1" connect="1" arrows="1" fold="1" page="1" pageScale="1" pageWidth="827" pageHeight="1169" math="0" shadow="0">
      <root>
        <mxCell id="0" />
        <mxCell id="1" parent="0" />
        <mxCell id="6W7InJgg7Zyp4sVrnLlZ-1" value="&lt;font style=&quot;font-size: 19px;&quot;&gt;A1&lt;/font&gt;" style="shape=umlFrame;whiteSpace=wrap;html=1;direction=west;width=80;height=40;" vertex="1" parent="1">
          <mxGeometry x="100" y="120" width="590" height="550" as="geometry" />
        </mxCell>
        <mxCell id="QYXQcuzDmwCKAN16wYCU-1" value="&lt;font size=&quot;1&quot; face=&quot;-apple-system, BlinkMacSystemFont, Roboto, Open Sans, Helvetica Neue, Noto Sans Armenian, Noto Sans Bengali, Noto Sans Cherokee, Noto Sans Devanagari, Noto Sans Ethiopic, Noto Sans Georgian, Noto Sans Hebrew, Noto Sans Kannada, Noto Sans Khmer, Noto Sans Lao, Noto Sans Osmanya, Noto Sans Tamil, Noto Sans Telugu, Noto Sans Thai, sans-serif&quot; style=&quot;&quot;&gt;&lt;span style=&quot;background-color: rgb(255, 255, 255); font-size: 31px;&quot;&gt;Переход на главную страницу выбора аниме по фильтрам&lt;/span&gt;&lt;/font&gt;" style="text;whiteSpace=wrap;html=1;align=center;verticalAlign=middle;strokeWidth=1;fontSize=27;" vertex="1" parent="1">
          <mxGeometry x="100" y="190" width="590" height="380" as="geometry" />
        </mxCell>
        <mxCell id="s5IMsq5uQT9vIxX8dzPe-1" value="&lt;font style=&quot;font-size: 19px;&quot;&gt;A2&lt;/font&gt;" style="shape=umlFrame;whiteSpace=wrap;html=1;direction=west;width=90;height=50;" vertex="1" parent="1">
          <mxGeometry x="930" y="820" width="590" height="550" as="geometry" />
        </mxCell>
        <mxCell id="s5IMsq5uQT9vIxX8dzPe-2" value="&lt;font face=&quot;-apple-system, BlinkMacSystemFont, Roboto, Open Sans, Helvetica Neue, Noto Sans Armenian, Noto Sans Bengali, Noto Sans Cherokee, Noto Sans Devanagari, Noto Sans Ethiopic, Noto Sans Georgian, Noto Sans Hebrew, Noto Sans Kannada, Noto Sans Khmer, Noto Sans Lao, Noto Sans Osmanya, Noto Sans Tamil, Noto Sans Telugu, Noto Sans Thai, sans-serif&quot; style=&quot;font-size: 32px;&quot;&gt;&lt;span style=&quot;background-color: rgb(255, 255, 255); font-size: 32px;&quot;&gt;Переход на страницу выбранного аниме&lt;/span&gt;&lt;/font&gt;" style="text;whiteSpace=wrap;html=1;align=center;verticalAlign=middle;fontSize=32;" vertex="1" parent="1">
          <mxGeometry x="930" y="905" width="590" height="380" as="geometry" />
        </mxCell>
        <mxCell id="xp2BzdXL1EfM8Uey_ax4-1" value="" style="endArrow=classic;html=1;rounded=0;fontSize=20;fontColor=#000000;" edge="1" parent="1">
          <mxGeometry width="50" height="50" relative="1" as="geometry">
            <mxPoint x="-320" y="160" as="sourcePoint" />
            <mxPoint x="100" y="160" as="targetPoint" />
          </mxGeometry>
        </mxCell>
        <mxCell id="xp2BzdXL1EfM8Uey_ax4-2" value="&lt;font style=&quot;font-size: 25px;&quot;&gt;данные об аниме&lt;/font&gt;" style="edgeLabel;html=1;align=center;verticalAlign=middle;resizable=0;points=[];fontSize=25;fontColor=#000000;" vertex="1" connectable="0" parent="xp2BzdXL1EfM8Uey_ax4-1">
          <mxGeometry x="-0.1217" y="1" relative="1" as="geometry">
            <mxPoint x="8" y="-19" as="offset" />
          </mxGeometry>
        </mxCell>
        <mxCell id="xp2BzdXL1EfM8Uey_ax4-3" value="" style="endArrow=classic;html=1;rounded=0;fontSize=18;fontColor=#000000;entryX=0.006;entryY=0.28;entryDx=0;entryDy=0;entryPerimeter=0;" edge="1" parent="1">
          <mxGeometry width="50" height="50" relative="1" as="geometry">
            <mxPoint x="-320" y="250" as="sourcePoint" />
            <mxPoint x="100" y="250" as="targetPoint" />
          </mxGeometry>
        </mxCell>
        <mxCell id="xp2BzdXL1EfM8Uey_ax4-4" value="данные о жанрах" style="edgeLabel;html=1;align=center;verticalAlign=middle;resizable=0;points=[];fontSize=25;fontColor=#000000;" vertex="1" connectable="0" parent="xp2BzdXL1EfM8Uey_ax4-3">
          <mxGeometry x="0.1933" y="1" relative="1" as="geometry">
            <mxPoint x="-39" y="-19" as="offset" />
          </mxGeometry>
        </mxCell>
        <mxCell id="xp2BzdXL1EfM8Uey_ax4-5" value="" style="endArrow=classic;html=1;rounded=0;fontSize=18;fontColor=#000000;entryX=0.006;entryY=0.28;entryDx=0;entryDy=0;entryPerimeter=0;" edge="1" parent="1">
          <mxGeometry width="50" height="50" relative="1" as="geometry">
            <mxPoint x="-320" y="330" as="sourcePoint" />
            <mxPoint x="100" y="330" as="targetPoint" />
          </mxGeometry>
        </mxCell>
        <mxCell id="xp2BzdXL1EfM8Uey_ax4-6" value="данные о студиях" style="edgeLabel;html=1;align=center;verticalAlign=middle;resizable=0;points=[];fontSize=24;fontColor=#000000;" vertex="1" connectable="0" parent="xp2BzdXL1EfM8Uey_ax4-5">
          <mxGeometry x="0.1933" y="1" relative="1" as="geometry">
            <mxPoint x="-39" y="-19" as="offset" />
          </mxGeometry>
        </mxCell>
        <mxCell id="xp2BzdXL1EfM8Uey_ax4-7" value="" style="endArrow=classic;html=1;rounded=0;fontSize=18;fontColor=#000000;entryX=0.006;entryY=0.28;entryDx=0;entryDy=0;entryPerimeter=0;" edge="1" parent="1">
          <mxGeometry width="50" height="50" relative="1" as="geometry">
            <mxPoint x="-320" y="420" as="sourcePoint" />
            <mxPoint x="100" y="420" as="targetPoint" />
          </mxGeometry>
        </mxCell>
        <mxCell id="xp2BzdXL1EfM8Uey_ax4-8" value="&lt;font style=&quot;font-size: 25px;&quot;&gt;данные о героях аниме&lt;/font&gt;" style="edgeLabel;html=1;align=center;verticalAlign=middle;resizable=0;points=[];fontSize=25;fontColor=#000000;" vertex="1" connectable="0" parent="xp2BzdXL1EfM8Uey_ax4-7">
          <mxGeometry x="0.1933" y="1" relative="1" as="geometry">
            <mxPoint x="-39" y="-19" as="offset" />
          </mxGeometry>
        </mxCell>
        <mxCell id="xp2BzdXL1EfM8Uey_ax4-9" value="данные о возрастных ограничениях" style="endArrow=classic;html=1;rounded=0;fontSize=23;fontColor=#000000;entryX=0.006;entryY=0.28;entryDx=0;entryDy=0;entryPerimeter=0;" edge="1" parent="1">
          <mxGeometry x="-0.1515" y="20" width="50" height="50" relative="1" as="geometry">
            <mxPoint x="-310" y="550" as="sourcePoint" />
            <mxPoint x="100" y="550" as="targetPoint" />
            <mxPoint as="offset" />
          </mxGeometry>
        </mxCell>
        <mxCell id="xp2BzdXL1EfM8Uey_ax4-10" value="" style="endArrow=classic;html=1;rounded=0;fontSize=18;fontColor=#000000;entryX=0.006;entryY=0.28;entryDx=0;entryDy=0;entryPerimeter=0;" edge="1" parent="1">
          <mxGeometry width="50" height="50" relative="1" as="geometry">
            <mxPoint x="-230" y="650" as="sourcePoint" />
            <mxPoint x="100" y="650" as="targetPoint" />
          </mxGeometry>
        </mxCell>
        <mxCell id="xp2BzdXL1EfM8Uey_ax4-11" value="данные об актерах озвучки" style="edgeLabel;html=1;align=center;verticalAlign=middle;resizable=0;points=[];fontSize=22;fontColor=#000000;" vertex="1" connectable="0" parent="xp2BzdXL1EfM8Uey_ax4-10">
          <mxGeometry x="0.1933" y="1" relative="1" as="geometry">
            <mxPoint x="-39" y="-19" as="offset" />
          </mxGeometry>
        </mxCell>
        <mxCell id="xp2BzdXL1EfM8Uey_ax4-12" value="" style="endArrow=classic;html=1;rounded=0;fontSize=18;fontColor=#000000;exitX=1.002;exitY=0.405;exitDx=0;exitDy=0;exitPerimeter=0;entryX=0;entryY=0.355;entryDx=0;entryDy=0;entryPerimeter=0;" edge="1" parent="1" source="QYXQcuzDmwCKAN16wYCU-1" target="s5IMsq5uQT9vIxX8dzPe-2">
          <mxGeometry width="50" height="50" relative="1" as="geometry">
            <mxPoint x="780" y="380" as="sourcePoint" />
            <mxPoint x="830" y="344" as="targetPoint" />
            <Array as="points">
              <mxPoint x="800" y="344" />
              <mxPoint x="800" y="1040" />
            </Array>
          </mxGeometry>
        </mxCell>
        <mxCell id="xp2BzdXL1EfM8Uey_ax4-13" value="&lt;font style=&quot;font-size: 26px;&quot;&gt;подробные сгруппированные &lt;br&gt;данные о каждом аниме&lt;/font&gt;" style="edgeLabel;html=1;align=center;verticalAlign=middle;resizable=0;points=[];fontSize=21;fontColor=#000000;" vertex="1" connectable="0" parent="xp2BzdXL1EfM8Uey_ax4-12">
          <mxGeometry x="-0.7051" y="2" relative="1" as="geometry">
            <mxPoint x="108" y="-83" as="offset" />
          </mxGeometry>
        </mxCell>
        <mxCell id="9_1R4pLCJzWYDmmcYKB7-1" value="" style="endArrow=classic;html=1;rounded=0;fontSize=15;fontColor=#000000;entryX=0.286;entryY=0.996;entryDx=0;entryDy=0;entryPerimeter=0;" edge="1" parent="1" target="6W7InJgg7Zyp4sVrnLlZ-1">
          <mxGeometry width="50" height="50" relative="1" as="geometry">
            <mxPoint x="521" y="-400" as="sourcePoint" />
            <mxPoint x="520" y="-120" as="targetPoint" />
          </mxGeometry>
        </mxCell>
        <mxCell id="9_1R4pLCJzWYDmmcYKB7-2" value="&lt;font style=&quot;font-size: 27px;&quot;&gt;База данных anidb&lt;/font&gt;" style="edgeLabel;html=1;align=center;verticalAlign=middle;resizable=0;points=[];fontSize=23;fontColor=#000000;" vertex="1" connectable="0" parent="9_1R4pLCJzWYDmmcYKB7-1">
          <mxGeometry x="-0.1538" y="2" relative="1" as="geometry">
            <mxPoint x="137" y="-98" as="offset" />
          </mxGeometry>
        </mxCell>
        <mxCell id="9_1R4pLCJzWYDmmcYKB7-3" value="" style="endArrow=classic;html=1;rounded=0;fontSize=15;fontColor=#000000;dashed=1;" edge="1" parent="1">
          <mxGeometry width="50" height="50" relative="1" as="geometry">
            <mxPoint x="270" y="-400" as="sourcePoint" />
            <mxPoint x="270" y="120" as="targetPoint" />
          </mxGeometry>
        </mxCell>
        <mxCell id="9_1R4pLCJzWYDmmcYKB7-4" value="&lt;font style=&quot;font-size: 31px;&quot;&gt;интернет&lt;/font&gt;" style="edgeLabel;html=1;align=center;verticalAlign=middle;resizable=0;points=[];fontSize=25;fontColor=#000000;" vertex="1" connectable="0" parent="9_1R4pLCJzWYDmmcYKB7-3">
          <mxGeometry x="-0.1538" y="2" relative="1" as="geometry">
            <mxPoint x="78" as="offset" />
          </mxGeometry>
        </mxCell>
        <mxCell id="9_1R4pLCJzWYDmmcYKB7-5" value="" style="endArrow=classic;html=1;rounded=0;fontSize=18;fontColor=#000000;entryX=0.336;entryY=0.998;entryDx=0;entryDy=0;entryPerimeter=0;" edge="1" parent="1" target="s5IMsq5uQT9vIxX8dzPe-1">
          <mxGeometry width="50" height="50" relative="1" as="geometry">
            <mxPoint x="520" y="-200" as="sourcePoint" />
            <mxPoint x="1320" y="560" as="targetPoint" />
            <Array as="points">
              <mxPoint x="1320" y="-200" />
            </Array>
          </mxGeometry>
        </mxCell>
        <mxCell id="9_1R4pLCJzWYDmmcYKB7-6" value="" style="endArrow=classic;html=1;rounded=0;fontSize=18;fontColor=#000000;entryX=0.542;entryY=0.998;entryDx=0;entryDy=0;entryPerimeter=0;dashed=1;" edge="1" parent="1" target="s5IMsq5uQT9vIxX8dzPe-1">
          <mxGeometry width="50" height="50" relative="1" as="geometry">
            <mxPoint x="270" y="-100" as="sourcePoint" />
            <mxPoint x="880" y="70" as="targetPoint" />
            <Array as="points">
              <mxPoint x="1120" y="-100" />
              <mxPoint x="1200" y="-100" />
            </Array>
          </mxGeometry>
        </mxCell>
        <mxCell id="OFW6dDlTqw3h3xmWxbmD-1" value="" style="endArrow=classic;html=1;rounded=0;fontSize=18;fontColor=#000000;exitX=1;exitY=0.403;exitDx=0;exitDy=0;exitPerimeter=0;" edge="1" parent="1" source="QYXQcuzDmwCKAN16wYCU-1">
          <mxGeometry width="50" height="50" relative="1" as="geometry">
            <mxPoint x="890" y="380" as="sourcePoint" />
            <mxPoint x="1900" y="343" as="targetPoint" />
          </mxGeometry>
        </mxCell>
        <mxCell id="rmfFdTrtOwImOQRTklDX-1" value="" style="endArrow=classic;html=1;rounded=0;fontSize=18;fontColor=#000000;exitX=1;exitY=0.175;exitDx=0;exitDy=0;exitPerimeter=0;" edge="1" parent="1">
          <mxGeometry width="50" height="50" relative="1" as="geometry">
            <mxPoint x="1520" y="970.25" as="sourcePoint" />
            <mxPoint x="1960" y="970" as="targetPoint" />
          </mxGeometry>
        </mxCell>
        <mxCell id="rmfFdTrtOwImOQRTklDX-2" value="отзывы пользователей" style="edgeLabel;html=1;align=center;verticalAlign=middle;resizable=0;points=[];fontSize=26;fontColor=#000000;" vertex="1" connectable="0" parent="rmfFdTrtOwImOQRTklDX-1">
          <mxGeometry x="-0.1802" y="-5" relative="1" as="geometry">
            <mxPoint x="35" y="-31" as="offset" />
          </mxGeometry>
        </mxCell>
        <mxCell id="rmfFdTrtOwImOQRTklDX-3" value="" style="endArrow=classic;html=1;rounded=0;fontSize=18;fontColor=#000000;exitX=1;exitY=0.175;exitDx=0;exitDy=0;exitPerimeter=0;" edge="1" parent="1">
          <mxGeometry width="50" height="50" relative="1" as="geometry">
            <mxPoint x="1520" y="1130.25" as="sourcePoint" />
            <mxPoint x="1960" y="1130" as="targetPoint" />
          </mxGeometry>
        </mxCell>
        <mxCell id="rmfFdTrtOwImOQRTklDX-4" value="отсортированное аниме" style="edgeLabel;html=1;align=center;verticalAlign=middle;resizable=0;points=[];fontSize=25;fontColor=#000000;" vertex="1" connectable="0" parent="rmfFdTrtOwImOQRTklDX-3">
          <mxGeometry x="-0.1802" y="-5" relative="1" as="geometry">
            <mxPoint x="35" y="-31" as="offset" />
          </mxGeometry>
        </mxCell>
        <mxCell id="vrzRzaJDXeZ6mmd82JKl-1" value="" style="endArrow=classic;html=1;rounded=0;fontSize=18;fontColor=#000000;entryX=0.561;entryY=-0.002;entryDx=0;entryDy=0;entryPerimeter=0;" edge="1" parent="1" target="6W7InJgg7Zyp4sVrnLlZ-1">
          <mxGeometry width="50" height="50" relative="1" as="geometry">
            <mxPoint x="359" y="1600" as="sourcePoint" />
            <mxPoint x="350" y="1320" as="targetPoint" />
          </mxGeometry>
        </mxCell>
        <mxCell id="vrzRzaJDXeZ6mmd82JKl-3" value="Пользователь" style="edgeLabel;html=1;align=center;verticalAlign=middle;resizable=0;points=[];fontSize=25;fontColor=#000000;" vertex="1" connectable="0" parent="vrzRzaJDXeZ6mmd82JKl-1">
          <mxGeometry x="-0.3994" y="-1" relative="1" as="geometry">
            <mxPoint x="90" y="109" as="offset" />
          </mxGeometry>
        </mxCell>
        <mxCell id="vrzRzaJDXeZ6mmd82JKl-2" value="" style="endArrow=classic;html=1;rounded=0;fontSize=18;fontColor=#000000;entryX=0.469;entryY=-0.004;entryDx=0;entryDy=0;entryPerimeter=0;" edge="1" parent="1" target="s5IMsq5uQT9vIxX8dzPe-1">
          <mxGeometry width="50" height="50" relative="1" as="geometry">
            <mxPoint x="360" y="1520" as="sourcePoint" />
            <mxPoint x="530" y="1540" as="targetPoint" />
            <Array as="points">
              <mxPoint x="1243" y="1520" />
            </Array>
          </mxGeometry>
        </mxCell>
      </root>
    </mxGraphModel>
  </diagram>
  <diagram id="akvDpEUrb3YoUCGv6VBy" name="Page-3">
    <mxGraphModel dx="-45" dy="649" grid="1" gridSize="10" guides="1" tooltips="1" connect="1" arrows="1" fold="1" page="1" pageScale="1" pageWidth="827" pageHeight="1169" math="0" shadow="0">
      <root>
        <mxCell id="0" />
        <mxCell id="1" parent="0" />
        <mxCell id="OnIqfidzks8IIxQR1zKm-1" value="&lt;font style=&quot;font-size: 15px;&quot;&gt;A21&lt;/font&gt;" style="shape=umlFrame;whiteSpace=wrap;html=1;direction=west;width=60;height=30;" vertex="1" parent="1">
          <mxGeometry x="890" y="450" width="590" height="550" as="geometry" />
        </mxCell>
        <mxCell id="QEdKaqzzIi8Ro8U_J5Nz-1" value="&lt;font face=&quot;-apple-system, BlinkMacSystemFont, Roboto, Open Sans, Helvetica Neue, Noto Sans Armenian, Noto Sans Bengali, Noto Sans Cherokee, Noto Sans Devanagari, Noto Sans Ethiopic, Noto Sans Georgian, Noto Sans Hebrew, Noto Sans Kannada, Noto Sans Khmer, Noto Sans Lao, Noto Sans Osmanya, Noto Sans Tamil, Noto Sans Telugu, Noto Sans Thai, sans-serif&quot;&gt;&lt;span style=&quot;font-size: 20px; background-color: rgb(255, 255, 255);&quot;&gt;Добавление аниме в список&lt;/span&gt;&lt;/font&gt;" style="text;whiteSpace=wrap;html=1;align=center;verticalAlign=middle;" vertex="1" parent="1">
          <mxGeometry x="890" y="530" width="590" height="380" as="geometry" />
        </mxCell>
        <mxCell id="QEdKaqzzIi8Ro8U_J5Nz-2" value="&lt;font style=&quot;font-size: 15px;&quot;&gt;A22&lt;/font&gt;" style="shape=umlFrame;whiteSpace=wrap;html=1;direction=west;width=60;height=30;" vertex="1" parent="1">
          <mxGeometry x="1640" y="990" width="590" height="550" as="geometry" />
        </mxCell>
        <mxCell id="QEdKaqzzIi8Ro8U_J5Nz-3" value="&lt;font face=&quot;-apple-system, BlinkMacSystemFont, Roboto, Open Sans, Helvetica Neue, Noto Sans Armenian, Noto Sans Bengali, Noto Sans Cherokee, Noto Sans Devanagari, Noto Sans Ethiopic, Noto Sans Georgian, Noto Sans Hebrew, Noto Sans Kannada, Noto Sans Khmer, Noto Sans Lao, Noto Sans Osmanya, Noto Sans Tamil, Noto Sans Telugu, Noto Sans Thai, sans-serif&quot;&gt;&lt;span style=&quot;font-size: 20px; background-color: rgb(255, 255, 255);&quot;&gt;Добавление/просмотр отзывов на аниме&lt;/span&gt;&lt;/font&gt;" style="text;whiteSpace=wrap;html=1;align=center;verticalAlign=middle;" vertex="1" parent="1">
          <mxGeometry x="1640" y="1070" width="590" height="380" as="geometry" />
        </mxCell>
        <mxCell id="QEdKaqzzIi8Ro8U_J5Nz-4" value="" style="endArrow=classic;html=1;rounded=0;fontSize=18;fontColor=#000000;entryX=0.461;entryY=-0.009;entryDx=0;entryDy=0;entryPerimeter=0;" edge="1" parent="1" target="QEdKaqzzIi8Ro8U_J5Nz-2">
          <mxGeometry width="50" height="50" relative="1" as="geometry">
            <mxPoint x="1160" y="1860" as="sourcePoint" />
            <mxPoint x="1530" y="1810" as="targetPoint" />
            <Array as="points">
              <mxPoint x="1958" y="1860" />
            </Array>
          </mxGeometry>
        </mxCell>
        <mxCell id="QEdKaqzzIi8Ro8U_J5Nz-5" value="" style="endArrow=classic;html=1;rounded=0;fontSize=18;fontColor=#000000;entryX=0.544;entryY=0.002;entryDx=0;entryDy=0;entryPerimeter=0;" edge="1" parent="1" target="OnIqfidzks8IIxQR1zKm-1">
          <mxGeometry width="50" height="50" relative="1" as="geometry">
            <mxPoint x="1160" y="2040" as="sourcePoint" />
            <mxPoint x="1200" y="1760" as="targetPoint" />
          </mxGeometry>
        </mxCell>
        <mxCell id="QEdKaqzzIi8Ro8U_J5Nz-6" value="Пользователь" style="edgeLabel;html=1;align=center;verticalAlign=middle;resizable=0;points=[];fontSize=18;fontColor=#000000;" vertex="1" connectable="0" parent="QEdKaqzzIi8Ro8U_J5Nz-5">
          <mxGeometry x="-0.5947" y="-1" relative="1" as="geometry">
            <mxPoint x="-81" y="31" as="offset" />
          </mxGeometry>
        </mxCell>
        <mxCell id="bNOl0EpgRK4ZnB2wiHXU-1" value="" style="endArrow=classic;html=1;rounded=0;fontSize=18;fontColor=#000000;exitX=1;exitY=0.175;exitDx=0;exitDy=0;exitPerimeter=0;" edge="1" parent="1">
          <mxGeometry width="50" height="50" relative="1" as="geometry">
            <mxPoint x="1480" y="680.25" as="sourcePoint" />
            <mxPoint x="1920" y="680" as="targetPoint" />
          </mxGeometry>
        </mxCell>
        <mxCell id="bNOl0EpgRK4ZnB2wiHXU-2" value="отсортированное аниме" style="edgeLabel;html=1;align=center;verticalAlign=middle;resizable=0;points=[];fontSize=18;fontColor=#000000;" vertex="1" connectable="0" parent="bNOl0EpgRK4ZnB2wiHXU-1">
          <mxGeometry x="-0.1802" y="-5" relative="1" as="geometry">
            <mxPoint x="35" y="-31" as="offset" />
          </mxGeometry>
        </mxCell>
        <mxCell id="VzijfszM9PShUKMeUlic-1" value="" style="endArrow=classic;html=1;rounded=0;fontSize=18;fontColor=#000000;exitX=1;exitY=0.175;exitDx=0;exitDy=0;exitPerimeter=0;" edge="1" parent="1">
          <mxGeometry width="50" height="50" relative="1" as="geometry">
            <mxPoint x="2230" y="1280.25" as="sourcePoint" />
            <mxPoint x="2670" y="1280" as="targetPoint" />
          </mxGeometry>
        </mxCell>
        <mxCell id="VzijfszM9PShUKMeUlic-2" value="актуальные отзывы пользователей" style="edgeLabel;html=1;align=center;verticalAlign=middle;resizable=0;points=[];fontSize=18;fontColor=#000000;" vertex="1" connectable="0" parent="VzijfszM9PShUKMeUlic-1">
          <mxGeometry x="-0.1802" y="-5" relative="1" as="geometry">
            <mxPoint x="35" y="-31" as="offset" />
          </mxGeometry>
        </mxCell>
      </root>
    </mxGraphModel>
  </diagram>
</mxfile>
